<?xml version="1.0" standalone="no"?>
<!DOCTYPE svg PUBLIC "-//W3C//DTD SVG 20010904//EN"
 "http://www.w3.org/TR/2001/REC-SVG-20010904/DTD/svg10.dtd">
<svg version="1.0" xmlns="http://www.w3.org/2000/svg"
 width="658.000000pt" height="658.000000pt" viewBox="0 0 658.000000 658.000000"
 preserveAspectRatio="xMidYMid meet">
<metadata>
Created by potrace 1.11, written by Peter Selinger 2001-2013
</metadata>
<g transform="translate(0.000000,658.000000) scale(0.100000,-0.100000)"
fill="#000000" stroke="none">
<path d="M1895 4238 c-7 -36 -38 -72 -91 -105 -18 -11 -18 -12 2 -12 23 -1 69
-45 81 -79 9 -23 10 -23 35 15 14 22 41 47 58 55 l33 16 -30 16 c-28 14 -48
44 -72 107 -8 23 -9 22 -16 -13z"/>
<path d="M1095 4253 c-11 -2 -45 -12 -75 -23 -30 -10 -84 -24 -120 -30 -188
-33 -319 -103 -352 -189 -14 -39 -1 -85 37 -131 19 -23 35 -51 35 -61 0 -11
-18 -39 -40 -63 -22 -24 -40 -53 -40 -64 0 -28 42 -56 120 -80 l65 -20 -92
-88 c-105 -101 -136 -156 -132 -232 9 -159 122 -295 293 -352 109 -36 167 -42
241 -25 71 16 109 39 152 90 59 71 73 123 78 290 2 103 19 161 65 225 l20 28
86 -23 c106 -28 197 -75 246 -126 61 -64 72 -93 73 -189 0 -78 -3 -91 -38
-162 -27 -55 -36 -85 -31 -103 8 -33 38 -32 71 3 l26 27 -8 -25 c-32 -107
-126 -191 -227 -204 -50 -7 -68 -16 -68 -36 0 -37 30 -53 87 -47 47 5 52 4 44
-11 -22 -41 -119 -112 -153 -112 -24 0 -58 -35 -58 -59 0 -11 7 -27 17 -36 21
-21 84 -13 161 21 30 13 57 22 59 20 10 -10 -89 -69 -147 -88 -51 -17 -94 -22
-205 -24 -77 -1 -146 -2 -153 -3 -8 -1 -12 -11 -10 -28 l3 -28 150 1 c164 1
243 16 400 76 278 108 474 354 522 658 9 57 10 271 1 330 -26 171 -85 318
-183 455 -46 64 -148 166 -205 205 -19 13 -37 27 -40 30 -26 30 -300 139 -353
140 -12 1 -40 8 -62 16 -95 36 -206 56 -260 47z"/>
<path d="M5320 3418 c-35 -84 -83 -200 -107 -258 -23 -58 -43 -108 -43 -112 0
-5 25 -8 55 -8 51 0 57 2 68 28 12 26 14 27 95 26 84 -1 101 -8 102 -41 0 -9
19 -13 61 -13 54 0 60 2 54 18 -49 128 -211 512 -216 512 -4 0 -35 -69 -69
-152z m93 -161 c9 -30 17 -57 17 -60 0 -4 -20 -7 -45 -7 l-44 0 21 60 c12 33
25 60 28 60 4 0 14 -24 23 -53z"/>
<path d="M5690 3304 l0 -264 50 0 50 0 1 48 c0 26 1 87 1 136 l0 90 52 -55
c28 -30 89 -96 135 -146 46 -51 87 -90 92 -87 5 3 9 122 9 265 l0 259 -50 0
-50 0 0 -142 -1 -143 -32 36 c-18 19 -77 87 -131 149 -54 63 -105 115 -112
116 -12 2 -14 -45 -14 -262z"/>
<path d="M2935 3438 c-26 -68 -56 -141 -66 -163 -27 -63 -99 -243 -99 -249 0
-3 27 -6 59 -6 58 0 60 1 66 30 l7 30 88 0 88 0 11 -30 c10 -29 12 -30 69 -30
l59 0 -108 267 c-59 147 -111 269 -116 270 -5 2 -31 -52 -58 -119z m94 -259
c-13 -8 -79 2 -79 12 0 4 10 34 22 66 l21 58 22 -65 c12 -36 18 -67 14 -71z"/>
<path d="M4233 3549 c-90 -17 -148 -62 -184 -144 -42 -95 -22 -220 47 -289 64
-63 186 -93 268 -66 l37 12 -5 52 c-3 28 -5 52 -6 54 0 1 -10 -3 -22 -9 -34
-18 -122 -14 -160 8 -95 55 -94 214 3 263 41 21 102 26 142 11 24 -10 26 -8
32 41 8 54 0 67 -40 69 -11 0 -31 2 -45 3 -14 2 -44 -1 -67 -5z"/>
<path d="M4489 3548 c-1 -2 -2 -117 -3 -256 l-1 -252 135 0 135 0 0 50 c0 28
-4 50 -10 51 -5 1 -43 1 -82 1 l-73 0 0 204 0 204 -50 0 c-27 0 -50 -1 -51 -2z"/>
<path d="M4849 3543 c-1 -5 -2 -119 -3 -256 l-1 -248 135 3 134 3 1 48 c1 53
8 49 -97 50 l-68 0 0 54 0 54 58 -2 c33 -1 64 1 70 5 7 4 11 27 10 52 l-1 44
-69 0 -68 0 0 50 0 49 63 0 c34 0 69 0 78 0 12 1 16 13 16 51 l1 50 -129 0
c-71 0 -130 -3 -130 -7z"/>
<path d="M2490 3522 c-42 -23 -71 -69 -77 -122 -8 -70 38 -124 142 -168 35
-14 53 -28 59 -46 21 -55 -51 -77 -146 -45 -29 10 -54 17 -55 16 -1 -2 -3 -24
-4 -50 -3 -56 2 -62 79 -77 135 -29 226 20 237 127 7 72 -29 117 -134 168 -59
29 -71 39 -71 59 0 50 52 70 116 46 34 -13 41 -6 48 47 6 49 1 52 -94 59 -52
4 -72 2 -100 -14z"/>
<path d="M3290 3280 l0 -260 53 0 52 0 0 103 0 102 68 3 67 3 0 49 c0 33 -4
50 -12 51 -7 1 -38 2 -68 3 l-54 1 -1 43 c0 24 4 47 10 51 5 4 40 7 78 6 l67
-1 0 53 0 53 -130 0 -130 0 0 -260z"/>
<path d="M3635 3283 l0 -258 136 -3 135 -3 0 53 -1 53 -82 0 -83 0 0 52 0 53
70 0 69 0 -2 53 -2 52 -65 0 -65 0 0 50 0 50 75 0 75 0 2 53 3 52 -133 0 -132
0 0 -257z"/>
<path d="M1516 3412 c-10 -41 -50 -89 -90 -107 -19 -8 -24 -14 -14 -14 27 -1
86 -59 93 -91 l7 -30 22 42 c15 28 36 50 66 65 24 13 36 23 27 23 -30 0 -77
51 -91 98 l-13 47 -7 -33z"/>
<path d="M2285 2924 c-15 -40 -49 -73 -89 -88 -17 -6 -14 -10 21 -27 37 -18
73 -68 65 -91 -1 -5 3 -8 8 -8 6 0 10 7 10 17 0 21 76 93 98 93 11 0 7 6 -13
18 -39 24 -55 44 -70 89 l-13 38 -17 -41z"/>
<path d="M2972 2888 c-25 -25 -14 -57 27 -78 22 -11 42 -24 45 -29 10 -16 -23
-33 -54 -29 -38 6 -50 -9 -15 -18 37 -9 75 4 84 29 11 27 1 40 -44 62 -19 9
-35 22 -35 30 0 21 31 34 57 24 13 -5 23 -5 23 0 0 22 -69 28 -88 9z"/>
<path d="M3098 2831 c-5 -101 -5 -101 53 -101 31 0 48 4 44 10 -3 6 -22 10
-41 10 -31 0 -34 2 -34 30 0 28 3 30 35 30 19 0 35 5 35 11 0 7 -14 10 -35 7
-33 -4 -35 -2 -35 24 0 28 9 33 52 29 9 -1 19 3 23 9 4 6 -11 10 -44 10 l-49
0 -4 -69z"/>
<path d="M3233 2815 c0 -47 4 -85 8 -85 10 0 12 13 9 48 -3 36 35 28 60 -13
12 -19 26 -35 31 -35 13 0 12 5 -10 41 -17 28 -18 34 -5 46 20 21 17 60 -5 73
-11 5 -35 10 -54 10 l-34 0 0 -85z m86 40 c4 -23 -23 -45 -48 -38 -16 4 -19
19 -12 65 2 14 56 -10 60 -27z"/>
<path d="M3390 2819 c33 -91 37 -97 49 -83 14 15 64 155 57 161 -10 10 -17 -3
-41 -72 l-22 -66 -25 67 c-13 37 -30 70 -36 72 -8 2 0 -29 18 -79z"/>
<path d="M3530 2815 c0 -50 4 -85 10 -85 6 0 10 35 10 85 0 50 -4 85 -10 85
-6 0 -10 -35 -10 -85z"/>
<path d="M3615 2875 c-32 -31 -34 -91 -5 -123 12 -12 28 -22 36 -22 8 0 13 -4
9 -9 -3 -5 0 -13 6 -17 9 -5 7 -11 -6 -21 -16 -11 -16 -13 -3 -13 21 0 42 26
28 35 -17 10 -11 25 10 25 11 0 20 5 20 10 0 6 -15 10 -34 10 -43 0 -66 22
-66 64 0 41 28 68 67 66 42 -3 50 -1 33 10 -27 17 -70 11 -95 -15z"/>
<path d="M3765 2875 c-52 -51 -16 -145 55 -145 48 0 79 37 76 91 -6 75 -80
106 -131 54z m94 -9 c20 -24 23 -67 6 -92 -31 -48 -105 -19 -105 41 0 52 69
88 99 51z"/>
<path d="M3948 2889 c-10 -5 -18 -21 -18 -34 0 -19 10 -30 41 -45 54 -28 51
-55 -7 -55 -29 0 -40 -4 -37 -12 3 -7 20 -13 37 -13 75 0 90 61 23 93 -47 22
-48 51 -2 54 49 2 51 3 35 13 -19 12 -50 12 -72 -1z"/>
<path d="M4130 2814 l0 -87 51 5 c60 6 88 33 89 86 0 48 -33 77 -93 80 l-47 3
0 -87z m106 41 c26 -39 9 -87 -36 -101 -19 -7 -38 -10 -42 -7 -5 2 -8 33 -8
69 l0 64 35 0 c26 0 39 -6 51 -25z"/>
<path d="M4310 2815 l0 -85 50 0 c29 0 50 5 50 11 0 6 -15 9 -37 7 -36 -3 -38
-2 -41 30 -3 31 -2 32 32 32 20 0 36 5 36 10 0 6 -16 10 -35 10 -31 0 -35 3
-35 25 0 25 10 30 52 26 9 -1 19 3 23 9 4 6 -12 10 -44 10 l-51 0 0 -85z"/>
<path d="M4508 2888 c-3 -10 -2 -115 1 -150 1 -12 91 -9 91 2 0 6 -17 10 -37
10 l-38 0 1 75 c1 67 -7 96 -18 63z"/>
<path d="M4630 2815 c0 -50 4 -85 10 -85 6 0 10 35 10 85 0 50 -4 85 -10 85
-6 0 -10 -35 -10 -85z"/>
<path d="M4700 2815 c0 -54 4 -85 11 -85 7 0 9 23 7 65 -2 36 -1 65 2 65 3 0
17 -29 30 -65 13 -36 29 -64 35 -62 5 2 22 35 37 73 l27 69 1 -72 c0 -42 4
-73 10 -73 6 0 10 35 10 85 0 70 -3 85 -15 85 -9 0 -18 -8 -22 -17 -3 -10 -14
-36 -23 -58 -10 -22 -19 -46 -22 -54 -2 -7 -16 19 -32 58 -39 100 -56 95 -56
-14z"/>
<path d="M4920 2815 c0 -50 4 -85 10 -85 6 0 10 16 10 35 0 32 3 35 28 35 31
0 62 27 62 53 0 23 -39 47 -77 47 l-33 0 0 -85z m85 48 c8 -21 -29 -55 -50
-46 -9 3 -15 18 -15 34 0 25 4 29 29 29 18 0 31 -6 36 -17z"/>
<path d="M5064 2815 l0 -85 48 0 c26 0 48 5 48 10 0 6 -17 10 -38 10 -34 0
-37 2 -38 30 -2 28 0 30 38 30 23 0 37 4 33 10 -3 6 -21 10 -39 10 -27 0 -32
3 -32 25 0 26 5 28 43 26 11 -1 24 3 28 8 4 7 -11 11 -42 11 l-49 0 0 -85z"/>
<path d="M5190 2891 c0 -6 18 -11 40 -13 l40 -3 -31 -45 c-16 -25 -37 -57 -45
-72 l-15 -28 61 0 c33 0 60 4 60 10 0 6 -20 10 -45 10 l-46 0 41 60 c61 90 61
90 -4 90 -31 0 -56 -4 -56 -9z"/>
<path d="M5360 2854 c-11 -26 -20 -51 -20 -56 0 -5 -7 -22 -15 -38 -9 -17 -11
-30 -6 -30 6 0 17 13 25 28 13 24 19 28 49 24 27 -3 37 -10 41 -28 4 -13 11
-24 16 -24 14 0 13 13 -4 52 -8 18 -22 52 -32 76 -9 23 -21 42 -25 42 -4 0
-17 -21 -29 -46z m48 -24 c11 -29 10 -30 -17 -30 -27 0 -28 1 -17 34 12 39 20
38 34 -4z"/>
</g>
</svg>
